<?xml version="1.0" encoding="UTF-8"?>
<svg width="68px" height="80px" viewBox="0 0 68 80" version="1.1" xmlns="http://www.w3.org/2000/svg" xmlns:xlink="http://www.w3.org/1999/xlink">
    <!-- Generator: Sketch 52.6 (67491) - http://www.bohemiancoding.com/sketch -->
    <title>tiles</title>
    <desc>Created with Sketch.</desc>
    <g id="tiles" stroke="none" stroke-width="1" fill="none" fill-rule="evenodd">
        <g id="Group" transform="translate(0.000000, 32.000000)" fill="#83C85D">
            <path d="M34,8 C34.6666667,4.73333333 36,2.06666667 38,0 C36.6666667,4.06666667 37.3333333,7.76666667 40,11.1 C41.3333333,9.76666667 42,7.76666667 42,5.1 C43.3333333,5.76666667 43.6666667,8.43333333 43,13.1 C43,13.7666667 43.6666667,14.1 45,14.1 C43.6666667,11.4333333 44.5555556,7.76666667 47.6666667,3.1 C47.8888889,7.76666667 48.6666667,11.7666667 50,15.1 C50.6666667,11.1 51,9.1 51,9.1 C53,11.7666667 53.3333333,14.7666667 52,18.1 C53.3333333,18.1 54.6666667,16.7666667 56,14.1 C56,17.1 57,20.1 57,20.1 C57.6666667,19.4333333 58.6666667,17.4333333 60,14.1 C60.6666667,20.1 61,23.1 61,23.1 C61,18.4333333 62.3333333,15.4333333 65,14.1 C61,22.1 65,26.1 65,26.1 C66.3333333,24.7666667 67,22.4333333 67,19.1 C68.3333333,21.7666667 68.6666667,24.7666667 68,28.1 C64,30.1 58,34.1 58,34.1 L27,13.1 C29.7176294,11.6490373 32.0509627,9.94903727 34,8 Z" id="Path-2"></path>
            <path d="M7.49022835,8 C10.156895,7.4 11.8235617,5.76666667 12.4902284,3.1 C12.9346728,6.36666667 13.156895,9.03333333 13.156895,11.1 C13.156895,9.03333333 13.8235617,7.03333333 15.156895,5.1 C14.7124506,7.76666667 15.0457839,10.4333333 16.156895,13.1 C16.156895,10.4333333 16.8235617,8.4 18.156895,7 C18.6013395,9 19.4902284,11.6666667 20.8235617,15 C21.9346728,13.7333333 22.156895,11.0666667 21.4902284,7 C24.156895,10.3333333 24.8235617,13.6666667 23.4902284,17 C25.4902284,17 26.8235617,15.3333333 27.4902284,12 C27.5346045,11.7781194 27.4902284,18 30.156895,20.1 C30.3791172,18.0333333 30.156895,14.3333333 29.4902284,9 C33.4902284,14.1 34.156895,23.1 34.156895,23.1 C35.0457839,21.7 35.156895,18.3666667 34.4902284,13.1 C38.156895,17 35.4902284,27 36.4902284,24 C37.4902284,21 37.4902284,19 40.4902284,18 C38.4902284,23.1 42.156895,23.1 41.156895,28.1 C37.156895,30.1 31.156895,34.1 31.156895,34.1 L0.156895018,13.1 C3.09674664,11.6490373 5.54119108,9.94903727 7.49022835,8 Z" id="Path-2" transform="translate(20.745114, 18.600000) scale(-1, 1) translate(-20.745114, -18.600000) "></path>
            <polygon id="Path" points="34 8 0 28 34 48 68 28"></polygon>
        </g>
        <path d="M30,38 C29,41 28,43 28,46 C28,49 36.5280172,49.7466475 39,47 C41.0280172,44.7466475 36,43 37,37 C35,39 34,41 34,43 C33.5,40 33,37 32,36 C32,40 32,42.3333333 32,43 C30.6666667,43 30,41.3333333 30,38 Z" id="Path-3" fill="#50A856"></path>
        <path d="M12,41 C10.1274414,47.4758301 9.45703125,49.7709961 10.4570312,52.7709961 L11.4775391,52.041748 C11.4775391,48.3366699 11.6516927,44.6560872 12,41 Z" id="Path-4" fill="#5FA03C"></path>
    </g>
</svg>